<svg version="1.1" xmlns="http://www.w3.org/2000/svg" viewBox="0 0 1493.7778015136719 331.1111297607422" width="1493.7778015136719" height="331.1111297607422" filter="invert(93%) hue-rotate(180deg)">
  <!-- svg-source:excalidraw -->
  
  <defs>
    <style class="style-fonts">
      @font-face {
        font-family: "Virgil";
        src: url("https://excalidraw.com/Virgil.woff2");
      }
      @font-face {
        font-family: "Cascadia";
        src: url("https://excalidraw.com/Cascadia.woff2");
      }
    </style>
    
  </defs>
  <rect x="0" y="0" width="1493.7778015136719" height="331.1111297607422" fill="#ffffff"></rect><g stroke-linecap="round" transform="translate(10 44.4444580078125) rotate(0 210.00001525878918 138.33333587646484)"><path d="M32 0 M32 0 C157.56 0, 283.12 0, 388 0 M32 0 C164.81 0, 297.63 0, 388 0 M388 0 C409.33 0, 420 10.67, 420 32 M388 0 C409.33 0, 420 10.67, 420 32 M420 32 C420 91.9, 420 151.79, 420 244.67 M420 32 C420 105.29, 420 178.58, 420 244.67 M420 244.67 C420 266, 409.33 276.67, 388 276.67 M420 244.67 C420 266, 409.33 276.67, 388 276.67 M388 276.67 C302.02 276.67, 216.04 276.67, 32 276.67 M388 276.67 C264.61 276.67, 141.21 276.67, 32 276.67 M32 276.67 C10.67 276.67, 0 266, 0 244.67 M32 276.67 C10.67 276.67, 0 266, 0 244.67 M0 244.67 C0 176.73, 0 108.79, 0 32 M0 244.67 C0 198.84, 0 153.02, 0 32 M0 32 C0 10.67, 10.67 0, 32 0 M0 32 C0 10.67, 10.67 0, 32 0" stroke="#1e1e1e" stroke-width="1" fill="none"></path></g><g stroke-linecap="round" transform="translate(58.888824462890625 92.22224426269531) rotate(0 42.77778625488281 24.444442749023438)"><path d="M12.22 0 M12.22 0 C26.22 0, 40.21 0, 73.33 0 M12.22 0 C35.14 0, 58.05 0, 73.33 0 M73.33 0 C81.48 0, 85.56 4.07, 85.56 12.22 M73.33 0 C81.48 0, 85.56 4.07, 85.56 12.22 M85.56 12.22 C85.56 19.96, 85.56 27.69, 85.56 36.67 M85.56 12.22 C85.56 20.28, 85.56 28.33, 85.56 36.67 M85.56 36.67 C85.56 44.81, 81.48 48.89, 73.33 48.89 M85.56 36.67 C85.56 44.81, 81.48 48.89, 73.33 48.89 M73.33 48.89 C54.76 48.89, 36.19 48.89, 12.22 48.89 M73.33 48.89 C57.29 48.89, 41.24 48.89, 12.22 48.89 M12.22 48.89 C4.07 48.89, 0 44.81, 0 36.67 M12.22 48.89 C4.07 48.89, 0 44.81, 0 36.67 M0 36.67 C0 29.79, 0 22.92, 0 12.22 M0 36.67 C0 27.11, 0 17.56, 0 12.22 M0 12.22 C0 4.07, 4.07 0, 12.22 0 M0 12.22 C0 4.07, 4.07 0, 12.22 0" stroke="#1e1e1e" stroke-width="1" fill="none"></path></g><g transform="translate(85.77861785888672 106.66668701171875) rotate(0 15.887992858886719 10)"><text x="15.887992858886719" y="0" font-family="Virgil, Segoe UI Emoji" font-size="16px" fill="#1e1e1e" text-anchor="middle" style="white-space: pre;" direction="ltr" dominant-baseline="text-before-edge">main</text></g><g stroke-linecap="round" transform="translate(169.99993896484375 91.11112976074219) rotate(0 56.66667175292969 23.888893127441406)"><path d="M11.94 0 M11.94 0 C30.63 0, 49.32 0, 101.39 0 M11.94 0 C45.78 0, 79.61 0, 101.39 0 M101.39 0 C109.35 0, 113.33 3.98, 113.33 11.94 M101.39 0 C109.35 0, 113.33 3.98, 113.33 11.94 M113.33 11.94 C113.33 17.94, 113.33 23.93, 113.33 35.83 M113.33 11.94 C113.33 19.2, 113.33 26.46, 113.33 35.83 M113.33 35.83 C113.33 43.8, 109.35 47.78, 101.39 47.78 M113.33 35.83 C113.33 43.8, 109.35 47.78, 101.39 47.78 M101.39 47.78 C66.78 47.78, 32.17 47.78, 11.94 47.78 M101.39 47.78 C78.89 47.78, 56.39 47.78, 11.94 47.78 M11.94 47.78 C3.98 47.78, 0 43.8, 0 35.83 M11.94 47.78 C3.98 47.78, 0 43.8, 0 35.83 M0 35.83 C0 28.36, 0 20.9, 0 11.94 M0 35.83 C0 30.56, 0 25.28, 0 11.94 M0 11.94 C0 3.98, 3.98 0, 11.94 0 M0 11.94 C0 3.98, 3.98 0, 11.94 0" stroke="#1e1e1e" stroke-width="1" fill="none"></path></g><g transform="translate(202.7306365966797 105.0000228881836) rotate(0 23.93597412109375 10)"><text x="23.93597412109375" y="0" font-family="Virgil, Segoe UI Emoji" font-size="16px" fill="#1e1e1e" text-anchor="middle" style="white-space: pre;" direction="ltr" dominant-baseline="text-before-edge">profile</text></g><g stroke-linecap="round" transform="translate(308.8888244628906 93.33335876464844) rotate(0 35 21.111106872558594)"><path d="M10.56 0 M10.56 0 C26.01 0, 41.46 0, 59.44 0 M10.56 0 C28.89 0, 47.23 0, 59.44 0 M59.44 0 C66.48 0, 70 3.52, 70 10.56 M59.44 0 C66.48 0, 70 3.52, 70 10.56 M70 10.56 C70 15.7, 70 20.85, 70 31.67 M70 10.56 C70 18.98, 70 27.4, 70 31.67 M70 31.67 C70 38.7, 66.48 42.22, 59.44 42.22 M70 31.67 C70 38.7, 66.48 42.22, 59.44 42.22 M59.44 42.22 C43.18 42.22, 26.92 42.22, 10.56 42.22 M59.44 42.22 C41.14 42.22, 22.84 42.22, 10.56 42.22 M10.56 42.22 C3.52 42.22, 0 38.7, 0 31.67 M10.56 42.22 C3.52 42.22, 0 38.7, 0 31.67 M0 31.67 C0 26.26, 0 20.86, 0 10.56 M0 31.67 C0 25.96, 0 20.26, 0 10.56 M0 10.56 C0 3.52, 3.52 0, 10.56 0 M0 10.56 C0 3.52, 3.52 0, 10.56 0" stroke="#1e1e1e" stroke-width="1" fill="none"></path></g><g transform="translate(326.5608367919922 104.44446563720703) rotate(0 17.327987670898438 10)"><text x="17.327987670898438" y="0" font-family="Virgil, Segoe UI Emoji" font-size="16px" fill="#1e1e1e" text-anchor="middle" style="white-space: pre;" direction="ltr" dominant-baseline="text-before-edge">news</text></g><g stroke-linecap="round" transform="translate(37.777740478515625 188.88893127441406) rotate(0 182.5 53)"><path d="M26.5 0 M26.5 0 C101.58 0, 176.66 0, 338.5 0 M338.5 0 C356.17 0, 365 8.83, 365 26.5 M365 26.5 C365 46.37, 365 66.24, 365 79.5 M365 79.5 C365 97.17, 356.17 106, 338.5 106 M338.5 106 C214.16 106, 89.82 106, 26.5 106 M26.5 106 C8.83 106, 0 97.17, 0 79.5 M0 79.5 C0 59.87, 0 40.25, 0 26.5 M0 26.5 C0 8.83, 8.83 0, 26.5 0" stroke="#1e1e1e" stroke-width="1.5" fill="none" stroke-dasharray="8 9"></path></g><g transform="translate(163.25376892089844 231.88893127441406) rotate(0 57.02397155761719 10)"><text x="57.02397155761719" y="0" font-family="Virgil, Segoe UI Emoji" font-size="16px" fill="#1e1e1e" text-anchor="middle" style="white-space: pre;" direction="ltr" dominant-baseline="text-before-edge">(page content)</text></g><g stroke-linecap="round" transform="translate(37.777740478515625 67.77778625488281) rotate(0 183.33334350585938 48.888893127441406)"><path d="M24.44 0 M24.44 0 C89.06 0, 153.67 0, 342.22 0 M342.22 0 C358.52 0, 366.67 8.15, 366.67 24.44 M366.67 24.44 C366.67 35.63, 366.67 46.82, 366.67 73.33 M366.67 73.33 C366.67 89.63, 358.52 97.78, 342.22 97.78 M342.22 97.78 C263.35 97.78, 184.48 97.78, 24.44 97.78 M24.44 97.78 C8.15 97.78, 0 89.63, 0 73.33 M0 73.33 C0 59.69, 0 46.05, 0 24.44 M0 24.44 C0 8.15, 8.15 0, 24.44 0" stroke="#1e1e1e" stroke-width="1.5" fill="none" stroke-dasharray="8 9"></path></g><g mask="url(#mask-eyWYIeol8unyB_KpWuxR0)" stroke-linecap="round"><g transform="translate(415.5555114746095 111.63801070985213) rotate(0 119.64462595837955 0.37689580537859513)"><path d="M0 0 C39.88 0.13, 199.41 0.63, 239.29 0.75 M0 0 C39.88 0.13, 199.41 0.63, 239.29 0.75" stroke="#1e1e1e" stroke-width="1" fill="none"></path></g><g transform="translate(415.5555114746095 111.63801070985213) rotate(0 119.64462595837955 0.37689580537859513)"><path d="M211.07 10.93 C219.83 7.77, 228.6 4.61, 239.29 0.75 M211.07 10.93 C218.94 8.09, 226.81 5.25, 239.29 0.75" stroke="#1e1e1e" stroke-width="1" fill="none"></path></g><g transform="translate(415.5555114746095 111.63801070985213) rotate(0 119.64462595837955 0.37689580537859513)"><path d="M211.13 -9.6 C219.88 -6.38, 228.62 -3.17, 239.29 0.75 M211.13 -9.6 C218.99 -6.71, 226.84 -3.82, 239.29 0.75" stroke="#1e1e1e" stroke-width="1" fill="none"></path></g></g><mask id="mask-eyWYIeol8unyB_KpWuxR0"><rect x="0" y="0" fill="#fff" width="754.8447633913686" height="212.39180232060932"></rect><rect x="464.1441834534967" y="102.0149065152307" fill="#000" width="142.11190795898438" height="20" opacity="1"></rect></mask><g transform="translate(464.1441834534968 102.01490651523073) rotate(0 71.05595397949224 10)"><text x="71.05595397949219" y="0" font-family="Virgil, Segoe UI Emoji" font-size="16px" fill="#1e1e1e" text-anchor="middle" style="white-space: pre;" direction="ltr" dominant-baseline="text-before-edge">listen "click" event</text></g><g stroke-linecap="round" transform="translate(658.8888854980469 62.22224426269531) rotate(0 73.3333129882813 50)"><path d="M92.5 12.75 M92.5 12.75 C102.23 19.71, 111.96 26.66, 128.17 38.25 M92.5 12.75 C105.13 21.78, 117.75 30.8, 128.17 38.25 M128.17 38.25 C146.67 51, 146.67 51, 128.17 63.75 M128.17 38.25 C146.67 51, 146.67 51, 128.17 63.75 M128.17 63.75 C116.91 71.17, 105.65 78.58, 92.5 87.25 M128.17 63.75 C114.6 72.69, 101.03 81.63, 92.5 87.25 M92.5 87.25 C74 100, 74 100, 55.5 87.25 M92.5 87.25 C74 100, 74 100, 55.5 87.25 M55.5 87.25 C44.48 80.25, 33.46 73.25, 18.5 63.75 M55.5 87.25 C44.23 80.09, 32.95 72.93, 18.5 63.75 M18.5 63.75 C0 51, 0 51, 18.5 38.25 M18.5 63.75 C0 51, 0 51, 18.5 38.25 M18.5 38.25 C30.46 30.01, 42.41 21.77, 55.5 12.75 M18.5 38.25 C29.76 30.49, 41.03 22.72, 55.5 12.75 M55.5 12.75 C74 0, 74 0, 92.5 12.75 M55.5 12.75 C74 0, 74 0, 92.5 12.75" stroke="#1e1e1e" stroke-width="1" fill="none"></path></g><g transform="translate(702.5115585327148 92.22224426269531) rotate(0 29.543983459472656 20)"><text x="29.543983459472656" y="0" font-family="Virgil, Segoe UI Emoji" font-size="16px" fill="#1e1e1e" text-anchor="middle" style="white-space: pre;" direction="ltr" dominant-baseline="text-before-edge">which </text><text x="29.543983459472656" y="20" font-family="Virgil, Segoe UI Emoji" font-size="16px" fill="#1e1e1e" text-anchor="middle" style="white-space: pre;" direction="ltr" dominant-baseline="text-before-edge">button?</text></g><g stroke-linecap="round" transform="translate(883.3332824707032 10) rotate(0 79 21.5)"><path d="M10.75 0 M10.75 0 C39.78 0, 68.82 0, 147.25 0 M147.25 0 C154.42 0, 158 3.58, 158 10.75 M158 10.75 C158 17.64, 158 24.54, 158 32.25 M158 32.25 C158 39.42, 154.42 43, 147.25 43 M147.25 43 C112.47 43, 77.7 43, 10.75 43 M10.75 43 C3.58 43, 0 39.42, 0 32.25 M0 32.25 C0 26, 0 19.75, 0 10.75 M0 10.75 C0 3.58, 3.58 0, 10.75 0" stroke="#1e1e1e" stroke-width="1.5" fill="none" stroke-dasharray="8 9"></path></g><g transform="translate(901.6853332519532 21.5) rotate(0 60.64794921875 10)"><text x="60.64794921875" y="0" font-family="Virgil, Segoe UI Emoji" font-size="16px" fill="#1e1e1e" text-anchor="middle" style="white-space: pre;" direction="ltr" dominant-baseline="text-before-edge">pageId = "main"</text></g><g stroke-linecap="round" transform="translate(947.777801513672 90.00001525878906) rotate(0 82.5 25)"><path d="M12.5 0 M12.5 0 C48.17 0, 83.83 0, 152.5 0 M152.5 0 C160.83 0, 165 4.17, 165 12.5 M165 12.5 C165 19.77, 165 27.04, 165 37.5 M165 37.5 C165 45.83, 160.83 50, 152.5 50 M152.5 50 C110.31 50, 68.12 50, 12.5 50 M12.5 50 C4.17 50, 0 45.83, 0 37.5 M0 37.5 C0 28.9, 0 20.31, 0 12.5 M0 12.5 C0 4.17, 4.17 0, 12.5 0" stroke="#1e1e1e" stroke-width="1.5" fill="none" stroke-dasharray="8 9"></path></g><g transform="translate(961.581871032715 105.00001525878906) rotate(0 68.69593048095703 10)"><text x="68.69593048095703" y="0" font-family="Virgil, Segoe UI Emoji" font-size="16px" fill="#1e1e1e" text-anchor="middle" style="white-space: pre;" direction="ltr" dominant-baseline="text-before-edge">pageId = "profile"</text></g><g stroke-linecap="round" transform="translate(897.7777404785157 201.11109924316406) rotate(0 70.5555419921875 15)"><path d="M7.5 0 M7.5 0 C55.11 0, 102.72 0, 133.61 0 M133.61 0 C138.61 0, 141.11 2.5, 141.11 7.5 M141.11 7.5 C141.11 12.28, 141.11 17.06, 141.11 22.5 M141.11 22.5 C141.11 27.5, 138.61 30, 133.61 30 M133.61 30 C91.2 30, 48.78 30, 7.5 30 M7.5 30 C2.5 30, 0 27.5, 0 22.5 M0 22.5 C0 17.03, 0 11.56, 0 7.5 M0 7.5 C0 2.5, 2.5 0, 7.5 0" stroke="#1e1e1e" stroke-width="1.5" fill="none" stroke-dasharray="8 9"></path></g><g transform="translate(906.2453384399415 206.11109924316406) rotate(0 62.08794403076172 10)"><text x="62.08794403076172" y="0" font-family="Virgil, Segoe UI Emoji" font-size="16px" fill="#1e1e1e" text-anchor="middle" style="white-space: pre;" direction="ltr" dominant-baseline="text-before-edge">pageId = "news"</text></g><g mask="url(#mask-NABKuSD6cAlwG2yN9UM9N)" stroke-linecap="round"><g transform="translate(732.2221984863282 51.22641574075865) rotate(0 74.44442749023438 -12.598367200169855)"><path d="M0 0 C9.07 -4.09, 29.63 -21.56, 54.44 -24.56 C79.26 -27.56, 133.15 -19.07, 148.89 -17.97 M0 0 C9.07 -4.09, 29.63 -21.56, 54.44 -24.56 C79.26 -27.56, 133.15 -19.07, 148.89 -17.97" stroke="#1e1e1e" stroke-width="1" fill="none"></path></g><g transform="translate(732.2221984863282 51.22641574075865) rotate(0 74.44442749023438 -12.598367200169855)"><path d="M119.75 -10.83 C128.2 -12.9, 136.65 -14.98, 148.89 -17.97 M119.75 -10.83 C128.14 -12.89, 136.53 -14.95, 148.89 -17.97" stroke="#1e1e1e" stroke-width="1" fill="none"></path></g><g transform="translate(732.2221984863282 51.22641574075865) rotate(0 74.44442749023438 -12.598367200169855)"><path d="M121.98 -31.23 C129.78 -27.39, 137.59 -23.54, 148.89 -17.97 M121.98 -31.23 C129.73 -27.42, 137.48 -23.6, 148.89 -17.97" stroke="#1e1e1e" stroke-width="1" fill="none"></path></g></g><mask id="mask-NABKuSD6cAlwG2yN9UM9N"><rect x="0" y="0" fill="#fff" width="981.111053466797" height="175.78615972858762"></rect><rect x="765.5306167602539" y="16.666671752929688" fill="#000" width="42.27195739746094" height="20" opacity="1"></rect></mask><g transform="translate(765.5306167602539 16.666671752929684) rotate(0 41.13600921630871 21.961376787659106)"><text x="21.13597869873047" y="0" font-family="Virgil, Segoe UI Emoji" font-size="16px" fill="#1e1e1e" text-anchor="middle" style="white-space: pre;" direction="ltr" dominant-baseline="text-before-edge">"main"</text></g><g mask="url(#mask-KsvRkTNWVDPTyDGQUQr6b)" stroke-linecap="round"><g transform="translate(809.5661989431043 111.6758542485995) rotate(0 64.10580128528386 1.083547504535609)"><path d="M0 0 C21.37 0.36, 106.84 1.81, 128.21 2.17 M0 0 C21.37 0.36, 106.84 1.81, 128.21 2.17" stroke="#1e1e1e" stroke-width="1" fill="none"></path></g><g transform="translate(809.5661989431043 111.6758542485995) rotate(0 64.10580128528386 1.083547504535609)"><path d="M99.85 11.95 C107.78 9.22, 115.71 6.48, 128.21 2.17 M99.85 11.95 C107.66 9.26, 115.47 6.56, 128.21 2.17" stroke="#1e1e1e" stroke-width="1" fill="none"></path></g><g transform="translate(809.5661989431043 111.6758542485995) rotate(0 64.10580128528386 1.083547504535609)"><path d="M100.2 -8.57 C108.03 -5.57, 115.86 -2.57, 128.21 2.17 M100.2 -8.57 C107.91 -5.61, 115.63 -2.66, 128.21 2.17" stroke="#1e1e1e" stroke-width="1" fill="none"></path></g></g><mask id="mask-KsvRkTNWVDPTyDGQUQr6b"><rect x="0" y="0" fill="#fff" width="1037.7778015136719" height="213.84294925767074"></rect><rect x="844.4880402674507" y="102.75940175313511" fill="#000" width="58.367919921875" height="20" opacity="1"></rect></mask><g transform="translate(844.4880402674505 102.75940175313511) rotate(0 29.1839599609375 10.000000000000007)"><text x="29.1839599609375" y="0" font-family="Virgil, Segoe UI Emoji" font-size="16px" fill="#1e1e1e" text-anchor="middle" style="white-space: pre;" direction="ltr" dominant-baseline="text-before-edge">"profile"</text></g><g mask="url(#mask-Ly7ZWXhIFaNPhJE9K6r4x)" stroke-linecap="round"><g transform="translate(735.5555114746094 166.6666717529297) rotate(0 75.00000000000006 25)"><path d="M0 0 C6.11 6.11, 11.67 28.33, 36.67 36.67 C61.67 45, 131.11 47.78, 150 50 M0 0 C6.11 6.11, 11.67 28.33, 36.67 36.67 C61.67 45, 131.11 47.78, 150 50" stroke="#1e1e1e" stroke-width="1" fill="none"></path></g><g transform="translate(735.5555114746094 166.6666717529297) rotate(0 75.00000000000006 25)"><path d="M121.07 57.94 C127.44 56.19, 133.82 54.44, 150 50 M121.07 57.94 C131.26 55.14, 141.46 52.35, 150 50" stroke="#1e1e1e" stroke-width="1" fill="none"></path></g><g transform="translate(735.5555114746094 166.6666717529297) rotate(0 75.00000000000006 25)"><path d="M122.73 37.49 C128.74 40.24, 134.75 43, 150 50 M122.73 37.49 C132.34 41.9, 141.95 46.3, 150 50" stroke="#1e1e1e" stroke-width="1" fill="none"></path></g></g><mask id="mask-Ly7ZWXhIFaNPhJE9K6r4x"><rect x="0" y="0" fill="#fff" width="985.5555114746095" height="316.6666717529297"></rect><rect x="749.6461639404298" y="193.33335876464844" fill="#000" width="45.151947021484375" height="20" opacity="1"></rect></mask><g transform="translate(749.6461639404298 193.33335876464844) rotate(0 60.909347534179744 -1.66668701171875)"><text x="22.575973510742188" y="0" font-family="Virgil, Segoe UI Emoji" font-size="16px" fill="#1e1e1e" text-anchor="middle" style="white-space: pre;" direction="ltr" dominant-baseline="text-before-edge">"news"</text></g><g stroke-linecap="round" transform="translate(1247.7778015136719 79.99998474121094) rotate(0 118 35)"><path d="M17.5 0 M17.5 0 C57.86 0, 98.22 0, 218.5 0 M17.5 0 C71.77 0, 126.04 0, 218.5 0 M218.5 0 C230.17 0, 236 5.83, 236 17.5 M218.5 0 C230.17 0, 236 5.83, 236 17.5 M236 17.5 C236 26.81, 236 36.12, 236 52.5 M236 17.5 C236 28.79, 236 40.07, 236 52.5 M236 52.5 C236 64.17, 230.17 70, 218.5 70 M236 52.5 C236 64.17, 230.17 70, 218.5 70 M218.5 70 C148.01 70, 77.52 70, 17.5 70 M218.5 70 C161.67 70, 104.83 70, 17.5 70 M17.5 70 C5.83 70, 0 64.17, 0 52.5 M17.5 70 C5.83 70, 0 64.17, 0 52.5 M0 52.5 C0 41.74, 0 30.98, 0 17.5 M0 52.5 C0 40.19, 0 27.89, 0 17.5 M0 17.5 C0 5.83, 5.83 0, 17.5 0 M0 17.5 C0 5.83, 5.83 0, 17.5 0" stroke="#1e1e1e" stroke-width="1" fill="none"></path></g><g transform="translate(1276.9538879394531 104.99998474121094) rotate(0 88.82391357421875 10)"><text x="88.82391357421875" y="0" font-family="Virgil, Segoe UI Emoji" font-size="16px" fill="#1e1e1e" text-anchor="middle" style="white-space: pre;" direction="ltr" dominant-baseline="text-before-edge">load(`${pageId}.html`)</text></g><g stroke-linecap="round"><g transform="translate(1054.4444885253906 32.733863234422046) rotate(0 91.66665649414062 39.63775383584676)"><path d="M0 0 C30.56 13.21, 152.78 66.06, 183.33 79.28 M0 0 C30.56 13.21, 152.78 66.06, 183.33 79.28" stroke="#1e1e1e" stroke-width="1" fill="none"></path></g><g transform="translate(1054.4444885253906 32.733863234422046) rotate(0 91.66665649414062 39.63775383584676)"><path d="M153.39 77.5 C164.83 78.18, 176.27 78.86, 183.33 79.28 M153.39 77.5 C161.34 77.97, 169.29 78.45, 183.33 79.28" stroke="#1e1e1e" stroke-width="1" fill="none"></path></g><g transform="translate(1054.4444885253906 32.733863234422046) rotate(0 91.66665649414062 39.63775383584676)"><path d="M161.53 58.67 C169.86 66.54, 178.19 74.41, 183.33 79.28 M161.53 58.67 C167.32 64.14, 173.11 69.61, 183.33 79.28" stroke="#1e1e1e" stroke-width="1" fill="none"></path></g></g><mask></mask><g stroke-linecap="round"><g transform="translate(1120.0000305175781 117.83634754828432) rotate(0 58.333343505859375 -0.5115421389668242)"><path d="M0 0 C19.44 -0.17, 97.22 -0.85, 116.67 -1.02 M0 0 C19.44 -0.17, 97.22 -0.85, 116.67 -1.02" stroke="#1e1e1e" stroke-width="1" fill="none"></path></g><g transform="translate(1120.0000305175781 117.83634754828432) rotate(0 58.333343505859375 -0.5115421389668242)"><path d="M88.57 9.48 C94.86 7.13, 101.15 4.78, 116.67 -1.02 M88.57 9.48 C99.17 5.52, 109.78 1.55, 116.67 -1.02" stroke="#1e1e1e" stroke-width="1" fill="none"></path></g><g transform="translate(1120.0000305175781 117.83634754828432) rotate(0 58.333343505859375 -0.5115421389668242)"><path d="M88.39 -11.04 C94.72 -8.79, 101.05 -6.55, 116.67 -1.02 M88.39 -11.04 C99.06 -7.26, 109.73 -3.48, 116.67 -1.02" stroke="#1e1e1e" stroke-width="1" fill="none"></path></g></g><mask></mask><g stroke-linecap="round"><g transform="translate(1050.0000305175781 216.02494302858753) rotate(0 92.77777099609375 -46.54937374672889)"><path d="M0 0 C30.93 -15.52, 154.63 -77.58, 185.56 -93.1 M0 0 C30.93 -15.52, 154.63 -77.58, 185.56 -93.1" stroke="#1e1e1e" stroke-width="1" fill="none"></path></g><g transform="translate(1050.0000305175781 216.02494302858753) rotate(0 92.77777099609375 -46.54937374672889)"><path d="M164.96 -71.29 C169.77 -76.38, 174.59 -81.48, 185.56 -93.1 M164.96 -71.29 C172.19 -78.94, 179.41 -86.59, 185.56 -93.1" stroke="#1e1e1e" stroke-width="1" fill="none"></path></g><g transform="translate(1050.0000305175781 216.02494302858753) rotate(0 92.77777099609375 -46.54937374672889)"><path d="M155.76 -89.63 C162.72 -90.44, 169.69 -91.25, 185.56 -93.1 M155.76 -89.63 C166.21 -90.85, 176.67 -92.06, 185.56 -93.1" stroke="#1e1e1e" stroke-width="1" fill="none"></path></g></g><mask></mask><g mask="url(#mask-ztm6-je_98PA7HUjBYbrG)" stroke-linecap="round"><g transform="translate(1368.8891296386719 159.99998474121094) rotate(0 -477.77780151367193 71.13466935627278)"><path d="M0 0 C-64.07 23.33, -225.19 125.56, -384.44 140 C-543.7 154.44, -860.37 95.56, -955.56 86.67 M0 0 C-64.07 23.33, -225.19 125.56, -384.44 140 C-543.7 154.44, -860.37 95.56, -955.56 86.67" stroke="#1e1e1e" stroke-width="1" fill="none"></path></g><g transform="translate(1368.8891296386719 159.99998474121094) rotate(0 -477.77780151367193 71.13466935627278)"><path d="M-926.25 80.25 C-933.33 81.8, -940.4 83.35, -955.56 86.67 M-926.25 80.25 C-934.47 82.05, -942.68 83.85, -955.56 86.67" stroke="#1e1e1e" stroke-width="1" fill="none"></path></g><g transform="translate(1368.8891296386719 159.99998474121094) rotate(0 -477.77780151367193 71.13466935627278)"><path d="M-928.98 100.59 C-935.4 97.23, -941.81 93.87, -955.56 86.67 M-928.98 100.59 C-936.43 96.69, -943.88 92.78, -955.56 86.67" stroke="#1e1e1e" stroke-width="1" fill="none"></path></g></g><mask id="mask-ztm6-je_98PA7HUjBYbrG"><rect x="0" y="0" fill="#fff" width="2424.4447326660156" height="400.00001525878906"></rect><rect x="951.564697265625" y="290.00001525878906" fill="#000" width="65.75994873046875" height="20" opacity="1"></rect></mask><g transform="translate(951.564697265625 290.00001525878906) rotate(0 -60.45336914062506 -58.865361161305344)"><text x="32.879974365234375" y="0" font-family="Virgil, Segoe UI Emoji" font-size="16px" fill="#1e1e1e" text-anchor="middle" style="white-space: pre;" direction="ltr" dominant-baseline="text-before-edge">set html</text></g></svg>